<?xml version="1.0" encoding="UTF-8"?>
<!DOCTYPE svg PUBLIC "-//W3C//DTD SVG 1.1//EN" "http://www.w3.org/Graphics/SVG/1.1/DTD/svg11.dtd">
<svg xmlns="http://www.w3.org/2000/svg" version="1.1" width="529px" height="529px" style="shape-rendering:geometricPrecision; text-rendering:geometricPrecision; image-rendering:optimizeQuality; fill-rule:evenodd; clip-rule:evenodd"
    xmlns:xlink="http://www.w3.org/1999/xlink">
    <g>
        <path style="opacity:0.992" fill="#ffffff" d="M 270.5,1.5 C 278.687,1.51478 285.187,4.84811 290,11.5C 299.415,27.9982 309.081,44.3316 319,60.5C 333.353,78.6844 352.187,88.0177 375.5,88.5C 396.382,85.0706 417.216,81.4039 438,77.5C 449.532,77.2501 456.866,82.5834 460,93.5C 460.878,97.7891 461.378,102.122 461.5,106.5C 457.338,127.818 453.171,149.151 449,170.5C 448.366,191.079 455.866,208.245 471.5,222C 483.564,230.394 495.897,238.394 508.5,246C 513.271,249.138 517.771,252.638 522,256.5C 528.184,265.142 528.851,274.142 524,283.5C 520.651,286.682 517.484,290.015 514.5,293.5C 495.823,305.17 477.49,317.337 459.5,330C 450.784,337.594 445.284,347.094 443,358.5C 442.095,365.375 441.261,372.209 440.5,379C 444.794,398.732 448.794,418.565 452.5,438.5C 451.789,446.087 448.789,452.587 443.5,458C 440.754,459.75 437.754,460.75 434.5,461C 428.167,461.667 421.833,461.667 415.5,461C 396.663,456.207 377.663,452.207 358.5,449C 350.983,447.927 343.65,448.594 336.5,451C 325.628,455.547 316.128,462.047 308,470.5C 297.081,487.339 285.915,504.006 274.5,520.5C 266.379,527.618 257.379,529.118 247.5,525C 242.699,521.201 238.199,517.034 234,512.5C 223.249,495.33 212.249,478.33 201,461.5C 187.852,445.888 171.019,439.055 150.5,441C 130.653,444.753 110.82,448.587 91,452.5C 73.334,450.323 65.5007,440.323 67.5,422.5C 71.9822,401.903 76.1489,381.237 80,360.5C 82.6268,351.892 81.9601,343.559 78,335.5C 73.1535,323.985 65.9868,314.152 56.5,306C 42.5753,294.757 27.5753,285.09 11.5,277C 2.39213,268.78 -0.107866,258.947 4,247.5C 8.27365,243.137 12.4403,238.637 16.5,234C 32.1001,224.729 47.4334,215.062 62.5,205C 67.6667,200.5 72.8333,196 78,191.5C 87.7892,173.523 90.4558,154.523 86,134.5C 82.3579,120.266 79.1913,105.932 76.5,91.5C 77.802,83.6917 81.1354,76.8583 86.5,71C 88.087,70.1376 89.7536,69.4709 91.5,69C 96.6811,68.6377 101.848,68.1377 107,67.5C 127.108,71.9017 147.275,76.0683 167.5,80C 176.441,82.6152 185.108,81.9485 193.5,78C 206.679,72.4932 217.513,63.9932 226,52.5C 234.667,39.1667 243.333,25.8333 252,12.5C 256.838,6.34059 263.005,2.67392 270.5,1.5 Z"/>
    </g>
    <g>
        <path style="opacity:1" fill="#000000" d="M 108.5,162.5 C 127.836,162.333 147.17,162.5 166.5,163C 214.797,166.626 242.63,192.459 250,240.5C 252.823,264.555 250.157,287.888 242,310.5C 229.058,338.405 207.225,354.239 176.5,358C 153.859,359.371 131.192,359.871 108.5,359.5C 108.5,293.833 108.5,228.167 108.5,162.5 Z"/>
    </g>
    <g>
        <path style="opacity:1" fill="#000000" d="M 277.5,162.5 C 322.833,162.5 368.167,162.5 413.5,162.5C 413.666,169.508 413.5,176.508 413,183.5C 377.478,234.566 341.978,285.566 306.5,336.5C 305.957,336.56 305.624,336.893 305.5,337.5C 342.827,338.5 380.161,338.833 417.5,338.5C 417.5,345.167 417.5,351.833 417.5,358.5C 370.167,358.5 322.833,358.5 275.5,358.5C 275.071,351.053 275.571,343.719 277,336.5C 312.054,286.286 346.887,235.953 381.5,185.5C 382.043,185.44 382.376,185.107 382.5,184.5C 347.506,183.5 312.506,183.167 277.5,183.5C 277.5,176.5 277.5,169.5 277.5,162.5 Z"/>
    </g>
    <g>
        <path style="opacity:1" fill="#000000" d="M 277.5,162.5 C 277.5,169.5 277.5,176.5 277.5,183.5C 312.506,183.167 347.506,183.5 382.5,184.5C 382.376,185.107 382.043,185.44 381.5,185.5C 346.671,184.502 311.671,184.168 276.5,184.5C 276.175,176.981 276.508,169.648 277.5,162.5 Z"/>
    </g>
    <g>
        <path style="opacity:1" fill="#ffffff" d="M 134.5,184.5 C 149.877,184.101 165.21,184.601 180.5,186C 201.102,191.267 214.602,204.1 221,224.5C 223.923,235.467 225.09,246.633 224.5,258C 226.091,319.761 196.091,346.261 134.5,337.5C 134.5,286.5 134.5,235.5 134.5,184.5 Z"/>
    </g>
    <g>
        <path style="opacity:1" fill="#000000" d="M 306.5,336.5 C 343.663,337.498 380.996,337.832 418.5,337.5C 418.5,344.833 418.5,352.167 418.5,359.5C 370.664,359.832 322.997,359.499 275.5,358.5C 322.833,358.5 370.167,358.5 417.5,358.5C 417.5,351.833 417.5,345.167 417.5,338.5C 380.161,338.833 342.827,338.5 305.5,337.5C 305.624,336.893 305.957,336.56 306.5,336.5 Z"/>
    </g>
</svg>
